<svg width="32" height="30" viewBox="0 0 32 30" fill="none" xmlns="http://www.w3.org/2000/svg">
<g filter="url(#filter0_d)">
<mask id="mask0" mask-type="alpha" maskUnits="userSpaceOnUse" x="1" y="0" width="30" height="30">
<circle cx="16" cy="15" r="15" fill="#C4C4C4"/>
</mask>
<g mask="url(#mask0)">
<path d="M42.2225 -1.22852H-9.97266V31.3934H42.2225V-1.22852Z" fill="#74ACDF"/>
<path d="M42.2225 9.64453H-9.97266V20.5185H42.2225V9.64453Z" fill="white"/>
<path d="M15.9675 14.9238L12.9413 18.186C12.9413 18.186 12.8815 18.2447 12.9217 18.2839C12.9619 18.323 13.0196 18.2643 13.0196 18.2643L16.2818 15.2381L15.9675 14.9238ZM14.8105 15.7992C14.2342 16.0167 14.0657 16.4929 13.5394 16.6571C13.0131 16.8213 12.8423 17.2193 12.6694 17.3661C12.4965 17.5129 12.3247 17.427 12.3204 17.4966C12.316 17.5662 12.5248 17.6282 12.789 17.4705C13.0533 17.3128 13.0468 17.066 13.6872 16.8594C14.3277 16.6528 14.3473 16.2885 14.9432 16.1287" fill="#F6B40E"/>
<path d="M14.8105 15.7992C14.2342 16.0167 14.0657 16.4929 13.5394 16.6571C13.0131 16.8213 12.8423 17.2193 12.6694 17.3661C12.4965 17.5129 12.3247 17.427 12.3204 17.4966C12.316 17.5662 12.5248 17.6282 12.789 17.4705C13.0533 17.3128 13.0468 17.066 13.6872 16.8594C14.3277 16.6528 14.3473 16.2885 14.9432 16.1287M15.9675 14.9238L12.9413 18.186C12.9413 18.186 12.8815 18.2447 12.9217 18.2839C12.9619 18.323 13.0196 18.2643 13.0196 18.2643L16.2818 15.2381L15.9675 14.9238Z" stroke="#85340A" stroke-width="0.1"/>
<path d="M15.9174 14.9961L14.3701 19.1684C14.3701 19.1684 14.3385 19.2456 14.3896 19.2674C14.4408 19.2891 14.4734 19.2108 14.4734 19.2108L16.3296 15.1668L15.9174 14.9961ZM15.1856 16.2477C14.7354 16.6663 14.7637 17.1731 14.3396 17.5265C13.9155 17.8799 13.9047 18.3137 13.809 18.5138C13.7133 18.7139 13.5132 18.7019 13.5371 18.7672C13.561 18.8324 13.7764 18.8118 13.959 18.5649C14.1417 18.3181 14.0428 18.0919 14.556 17.6559C15.0693 17.2198 14.9464 16.8762 15.4357 16.5011" fill="#F6B40E"/>
<path d="M15.1856 16.2477C14.7354 16.6663 14.7637 17.1731 14.3396 17.5265C13.9155 17.8799 13.9047 18.3137 13.809 18.5138C13.7133 18.7139 13.5132 18.7019 13.5371 18.7672C13.561 18.8324 13.7764 18.8118 13.959 18.5649C14.1417 18.3181 14.0428 18.0919 14.556 17.6559C15.0693 17.2198 14.9464 16.8762 15.4357 16.5011M15.9174 14.9961L14.3701 19.1684C14.3701 19.1684 14.3385 19.2456 14.3896 19.2674C14.4408 19.2891 14.4734 19.2108 14.4734 19.2108L16.3296 15.1668L15.9174 14.9961Z" stroke="#85340A" stroke-width="0.1"/>
<path d="M15.918 15.1705L17.7752 19.2167C17.7752 19.2167 17.8068 19.2939 17.8579 19.2733C17.909 19.2526 17.8775 19.1743 17.8775 19.1743L16.3301 15.002L15.918 15.1705ZM16.2866 16.5754C16.2638 17.1898 16.6422 17.5291 16.5922 18.0782C16.5421 18.6273 16.8444 18.9383 16.9184 19.1515C16.9923 19.3646 16.8423 19.4929 16.9053 19.5234C16.9684 19.5538 17.1054 19.3853 17.0608 19.0808C17.0162 18.7763 16.7857 18.6871 16.8433 18.0162C16.901 17.3453 16.5693 17.1887 16.6498 16.5776" fill="#F6B40E"/>
<path d="M16.2866 16.5754C16.2638 17.1898 16.6422 17.5291 16.5922 18.0782C16.5421 18.6273 16.8444 18.9383 16.9184 19.1515C16.9923 19.3646 16.8423 19.4929 16.9053 19.5234C16.9684 19.5538 17.1054 19.3853 17.0608 19.0808C17.0162 18.7763 16.7857 18.6871 16.8433 18.0162C16.901 17.3453 16.5693 17.1887 16.6498 16.5776M15.918 15.1705L17.7752 19.2167C17.7752 19.2167 17.8068 19.2939 17.8579 19.2733C17.909 19.2526 17.8775 19.1743 17.8775 19.1743L16.3301 15.002L15.918 15.1705Z" stroke="#85340A" stroke-width="0.1"/>
<path d="M15.9084 15.0801L16.0758 19.5275C16.0758 19.5275 16.0758 19.6113 16.1313 19.6113C16.1867 19.6113 16.1867 19.5275 16.1867 19.5275L16.3542 15.0801H15.9084ZM15.7115 16.5176C15.4549 17.0765 15.6746 17.5343 15.419 18.0226C15.1635 18.5108 15.3233 18.9132 15.3103 19.1382C15.2972 19.3633 15.1091 19.4242 15.1559 19.4764C15.2026 19.5286 15.394 19.4253 15.4691 19.1274C15.5441 18.8294 15.3603 18.6576 15.6724 18.0585C15.9845 17.4593 15.7355 17.1885 16.0432 16.6546" fill="#F6B40E"/>
<path d="M15.7115 16.5176C15.4549 17.0765 15.6746 17.5343 15.419 18.0226C15.1635 18.5108 15.3233 18.9132 15.3103 19.1382C15.2972 19.3633 15.1091 19.4242 15.1559 19.4764C15.2026 19.5286 15.394 19.4253 15.4691 19.1274C15.5441 18.8294 15.3603 18.6576 15.6724 18.0585C15.9845 17.4593 15.7355 17.1885 16.0432 16.6546M15.9084 15.0801L16.0758 19.5275C16.0758 19.5275 16.0758 19.6113 16.1313 19.6113C16.1867 19.6113 16.1867 19.5275 16.1867 19.5275L16.3542 15.0801H15.9084Z" stroke="#85340A" stroke-width="0.1"/>
<path d="M16.1249 14.8632L11.6775 15.0306C11.6775 15.0306 11.5938 15.0306 11.5938 15.0861C11.5938 15.1415 11.6775 15.1415 11.6775 15.1415L16.1249 15.309V14.8632ZM14.6874 14.6663C14.1285 14.4097 13.6707 14.6294 13.1824 14.3738C12.6942 14.1183 12.2919 14.2781 12.0668 14.2651C11.8417 14.252 11.7808 14.065 11.7286 14.1107C11.6764 14.1564 11.7797 14.3488 12.0776 14.4239C12.3756 14.4989 12.5474 14.3151 13.1466 14.6272C13.7457 14.9393 14.0165 14.6903 14.5504 14.998" fill="#F6B40E"/>
<path d="M14.6874 14.6663C14.1285 14.4097 13.6707 14.6294 13.1824 14.3738C12.6942 14.1183 12.2919 14.2781 12.0668 14.2651C11.8417 14.252 11.7808 14.065 11.7286 14.1107C11.6764 14.1564 11.7797 14.3488 12.0776 14.4239C12.3756 14.4989 12.5474 14.3151 13.1466 14.6272C13.7457 14.9393 14.0165 14.6903 14.5504 14.998M16.1249 14.8632L11.6775 15.0306C11.6775 15.0306 11.5938 15.0306 11.5938 15.0861C11.5938 15.1415 11.6775 15.1415 11.6775 15.1415L16.1249 15.309V14.8632Z" stroke="#85340A" stroke-width="0.1"/>
<path d="M16.2087 14.8743L12.0364 13.3269C12.0364 13.3269 11.9592 13.2954 11.9374 13.3465C11.9157 13.3976 11.994 13.4302 11.994 13.4302L16.038 15.2864L16.2087 14.8743ZM14.9571 14.1425C14.5385 13.6923 14.0317 13.7206 13.6783 13.2965C13.3249 12.8724 12.8911 12.8615 12.691 12.7658C12.4909 12.6702 12.5029 12.4712 12.4376 12.494C12.3724 12.5168 12.393 12.7332 12.6399 12.9159C12.8867 13.0986 13.1129 12.9996 13.5489 13.5129C13.985 14.0261 14.3286 13.9033 14.7038 14.3926" fill="#F6B40E"/>
<path d="M14.9571 14.1425C14.5385 13.6923 14.0317 13.7206 13.6783 13.2965C13.3249 12.8724 12.8911 12.8615 12.691 12.7658C12.4909 12.6702 12.5029 12.4712 12.4376 12.494C12.3724 12.5168 12.393 12.7332 12.6399 12.9159C12.8867 13.0986 13.1129 12.9996 13.5489 13.5129C13.985 14.0261 14.3286 13.9033 14.7038 14.3926M16.2087 14.8743L12.0364 13.3269C12.0364 13.3269 11.9592 13.2954 11.9374 13.3465C11.9157 13.3976 11.994 13.4302 11.994 13.4302L16.038 15.2864L16.2087 14.8743Z" stroke="#85340A" stroke-width="0.1"/>
<path d="M16.2837 14.9245L13.0215 11.8983C13.0215 11.8983 12.9628 11.8385 12.9236 11.8787C12.8845 11.919 12.9432 11.9766 12.9432 11.9766L15.9694 15.2388L16.2837 14.9245ZM15.4083 13.7676C15.1908 13.1912 14.7146 13.0227 14.5504 12.4964C14.3862 11.9701 13.9882 11.7994 13.8414 11.6265C13.6946 11.4536 13.7805 11.2818 13.7109 11.2774C13.6413 11.2731 13.5793 11.4818 13.737 11.7461C13.8947 12.0103 14.1415 12.0038 14.3481 12.6443C14.5547 13.2847 14.919 13.3043 15.0788 13.9002" fill="#F6B40E"/>
<path d="M15.4083 13.7676C15.1908 13.1912 14.7146 13.0227 14.5504 12.4964C14.3862 11.9701 13.9882 11.7994 13.8414 11.6265C13.6946 11.4536 13.7805 11.2818 13.7109 11.2774C13.6413 11.2731 13.5793 11.4818 13.737 11.7461C13.8947 12.0103 14.1415 12.0038 14.3481 12.6443C14.5547 13.2847 14.919 13.3043 15.0788 13.9002M16.2837 14.9245L13.0215 11.8983C13.0215 11.8983 12.9628 11.8385 12.9236 11.8787C12.8845 11.919 12.9432 11.9766 12.9432 11.9766L15.9694 15.2388L16.2837 14.9245Z" stroke="#85340A" stroke-width="0.1"/>
<path d="M14.761 15.9528C14.226 16.2061 14.1085 16.6161 13.5898 16.7618C14.0389 16.7313 14.2107 16.2833 14.799 16.0615L14.761 15.9528ZM16.0398 15.0078L13.9606 17.2435L16.1974 15.1644" fill="#85340A"/>
<path d="M15.7751 16.6633C15.5772 17.2201 15.7859 17.5898 15.5195 18.0628C15.8153 17.7246 15.6207 17.2864 15.8795 16.7133L15.7751 16.6633ZM16.0165 15.0898L16.1252 18.1433L16.234 15.0898" fill="#85340A"/>
<path d="M15.1978 16.4105C14.8009 16.8454 14.8531 17.2706 14.4258 17.6066C14.8292 17.4076 14.8162 16.9281 15.275 16.4975L15.1978 16.4105ZM16.0166 15.0469L14.9532 17.9122L16.2243 15.1339" fill="#85340A"/>
<path d="M16.04 14.875L11.9938 16.7323C11.9938 16.7323 11.9166 16.7638 11.9372 16.8149C11.9579 16.866 12.0362 16.8345 12.0362 16.8345L16.2085 15.2871L16.04 14.875ZM14.6351 15.2436C14.0207 15.2208 13.6814 15.5992 13.1323 15.5492C12.5831 15.4992 12.2721 15.8015 12.059 15.8754C11.8459 15.9493 11.7176 15.7993 11.6871 15.8624C11.6567 15.9254 11.8252 16.0624 12.1297 16.0179C12.4342 15.9733 12.5233 15.7427 13.1943 15.8004C13.8652 15.858 14.0218 15.5264 14.6329 15.6068" fill="#F6B40E"/>
<path d="M14.6351 15.2436C14.0207 15.2208 13.6814 15.5992 13.1323 15.5492C12.5831 15.4992 12.2721 15.8015 12.059 15.8754C11.8459 15.9493 11.7176 15.7993 11.6871 15.8624C11.6567 15.9254 11.8252 16.0624 12.1297 16.0179C12.4342 15.9733 12.5233 15.7427 13.1943 15.8004C13.8652 15.858 14.0218 15.5264 14.6329 15.6068M16.04 14.875L11.9938 16.7323C11.9938 16.7323 11.9166 16.7638 11.9372 16.8149C11.9579 16.866 12.0362 16.8345 12.0362 16.8345L16.2085 15.2871L16.04 14.875Z" stroke="#85340A" stroke-width="0.1"/>
<path d="M14.5303 15.3615C13.9399 15.3909 13.6789 15.7258 13.1406 15.6594C13.5658 15.8041 13.9018 15.4561 14.5249 15.4757L14.5303 15.3615ZM16.0744 14.9766L13.2961 16.2477L16.1603 15.1886" fill="#85340A"/>
<path d="M14.5448 14.7301C13.9881 14.5322 13.6184 14.741 13.1453 14.4746C13.4835 14.7704 13.9217 14.5757 14.4948 14.8345L14.5448 14.7301ZM16.1237 14.9716L13.0703 15.0803L16.1237 15.189" fill="#85340A"/>
<path d="M14.7986 14.1529C14.3636 13.756 13.9384 13.8082 13.6024 13.3809C13.8014 13.7843 14.281 13.7712 14.7116 14.2301L14.7986 14.1529ZM16.1622 14.9717L13.2969 13.9082L16.0752 15.1794" fill="#85340A"/>
<path d="M15.2556 13.718C15.0022 13.183 14.5923 13.0656 14.4466 12.5469C14.477 12.996 14.9239 13.1678 15.1468 13.7561L15.2556 13.718ZM16.2005 14.9968L13.9648 12.9177L16.0439 15.1545" fill="#85340A"/>
<path d="M16.3324 14.997L14.4751 10.9508C14.4751 10.9508 14.4436 10.8736 14.3925 10.8942C14.3414 10.9149 14.3729 10.9932 14.3729 10.9932L15.9203 15.1655L16.3324 14.997ZM15.9638 13.5921C15.9866 12.9777 15.6082 12.6384 15.6582 12.0893C15.7082 11.5402 15.4059 11.2303 15.332 11.016C15.258 10.8018 15.4081 10.6746 15.345 10.6441C15.282 10.6137 15.145 10.7822 15.1895 11.0867C15.2341 11.3912 15.4647 11.4804 15.407 12.1513C15.3494 12.8222 15.681 12.9788 15.6006 13.5899" fill="#F6B40E"/>
<path d="M15.9638 13.5921C15.9866 12.9777 15.6082 12.6384 15.6582 12.0893C15.7082 11.5402 15.4059 11.2303 15.332 11.016C15.258 10.8018 15.4081 10.6746 15.345 10.6441C15.282 10.6137 15.145 10.7822 15.1895 11.0867C15.2341 11.3912 15.4647 11.4804 15.407 12.1513C15.3494 12.8222 15.681 12.9788 15.6006 13.5899M16.3324 14.997L14.4751 10.9508C14.4751 10.9508 14.4436 10.8736 14.3925 10.8942C14.3414 10.9149 14.3729 10.9932 14.3729 10.9932L15.9203 15.1655L16.3324 14.997Z" stroke="#85340A" stroke-width="0.1"/>
<path d="M16.3466 15.08L16.1792 10.6326C16.1792 10.6326 16.1792 10.5488 16.1237 10.5488C16.0683 10.5488 16.0683 10.6326 16.0683 10.6326L15.9062 15.08H16.3466ZM16.5489 13.6436C16.8055 13.0836 16.5859 12.6258 16.8414 12.1375C17.097 11.6493 16.9371 11.2469 16.9502 11.0229C16.9632 10.7989 17.1502 10.7359 17.1046 10.6837C17.0589 10.6315 16.8664 10.7348 16.7914 11.0327C16.7164 11.3307 16.9001 11.5025 16.588 12.1016C16.276 12.7008 16.525 12.9716 16.2172 13.5055" fill="#F6B40E"/>
<path d="M16.5489 13.6436C16.8055 13.0836 16.5859 12.6258 16.8414 12.1375C17.097 11.6493 16.9371 11.2469 16.9502 11.0229C16.9632 10.7989 17.1502 10.7359 17.1046 10.6837C17.0589 10.6315 16.8664 10.7348 16.7914 11.0327C16.7164 11.3307 16.9001 11.5025 16.588 12.1016C16.276 12.7008 16.525 12.9716 16.2172 13.5055M16.3466 15.08L16.1792 10.6326C16.1792 10.6326 16.1792 10.5488 16.1237 10.5488C16.0683 10.5488 16.0683 10.6326 16.0683 10.6326L15.9062 15.08H16.3466Z" stroke="#85340A" stroke-width="0.1"/>
<path d="M16.3301 15.1668L17.8775 10.9934C17.8775 10.9934 17.909 10.9162 17.8579 10.8944C17.8068 10.8727 17.7742 10.951 17.7742 10.951L15.918 14.995L16.3301 15.1668ZM17.0619 13.9141C17.5121 13.4955 17.4838 12.9888 17.9079 12.6354C18.332 12.282 18.3374 11.8481 18.4386 11.648C18.5397 11.4479 18.7332 11.4599 18.7104 11.3946C18.6876 11.3294 18.4712 11.3501 18.2885 11.5969C18.1058 11.8437 18.2048 12.0699 17.6915 12.506C17.1783 12.942 17.3011 13.2856 16.8118 13.6619" fill="#F6B40E"/>
<path d="M17.0619 13.9141C17.5121 13.4955 17.4838 12.9888 17.9079 12.6354C18.332 12.282 18.3374 11.8481 18.4386 11.648C18.5397 11.4479 18.7332 11.4599 18.7104 11.3946C18.6876 11.3294 18.4712 11.3501 18.2885 11.5969C18.1058 11.8437 18.2048 12.0699 17.6915 12.506C17.1783 12.942 17.3011 13.2856 16.8118 13.6619M16.3301 15.1668L17.8775 10.9934C17.8775 10.9934 17.909 10.9162 17.8579 10.8944C17.8068 10.8727 17.7742 10.951 17.7742 10.951L15.918 14.995L16.3301 15.1668Z" stroke="#85340A" stroke-width="0.1"/>
<path d="M16.283 15.2407L19.3092 11.9785C19.3092 11.9785 19.369 11.9198 19.3288 11.8806C19.2886 11.8415 19.2309 11.9002 19.2309 11.9002L15.9688 14.9264L16.283 15.2407ZM17.44 14.3653C18.0163 14.1479 18.1849 13.6716 18.7112 13.5074C19.2375 13.3432 19.4082 12.9452 19.5811 12.7984C19.754 12.6516 19.9258 12.7375 19.9301 12.6679C19.9345 12.5983 19.7257 12.5363 19.4615 12.694C19.1972 12.8517 19.2038 13.0985 18.5633 13.3051C17.9228 13.5117 17.9032 13.876 17.3073 14.0359" fill="#F6B40E"/>
<path d="M17.44 14.3653C18.0163 14.1479 18.1849 13.6716 18.7112 13.5074C19.2375 13.3432 19.4082 12.9452 19.5811 12.7984C19.754 12.6516 19.9258 12.7375 19.9301 12.6679C19.9345 12.5983 19.7257 12.5363 19.4615 12.694C19.1972 12.8517 19.2038 13.0985 18.5633 13.3051C17.9228 13.5117 17.9032 13.876 17.3073 14.0359M16.283 15.2407L19.3092 11.9785C19.3092 11.9785 19.369 11.9198 19.3288 11.8806C19.2886 11.8415 19.2309 11.9002 19.2309 11.9002L15.9688 14.9264L16.283 15.2407Z" stroke="#85340A" stroke-width="0.1"/>
<path d="M15.9688 15.2381L19.2309 18.2643C19.2309 18.2643 19.2897 18.3241 19.3288 18.2839C19.368 18.2437 19.3092 18.186 19.3092 18.186L16.283 14.9238L15.9688 15.2381ZM16.8441 16.3951C17.0616 16.9714 17.5379 17.1399 17.7021 17.6662C17.8663 18.1925 18.2642 18.3633 18.411 18.5362C18.5578 18.7091 18.4719 18.8809 18.5415 18.8852C18.6111 18.8896 18.6731 18.6808 18.5154 18.4166C18.3578 18.1523 18.1109 18.1588 17.9043 17.5184C17.6977 16.8779 17.3334 16.8583 17.1736 16.2624" fill="#F6B40E"/>
<path d="M16.8441 16.3951C17.0616 16.9714 17.5379 17.1399 17.7021 17.6662C17.8663 18.1925 18.2642 18.3633 18.411 18.5362C18.5578 18.7091 18.4719 18.8809 18.5415 18.8852C18.6111 18.8896 18.6731 18.6808 18.5154 18.4166C18.3578 18.1523 18.1109 18.1588 17.9043 17.5184C17.6977 16.8779 17.3334 16.8583 17.1736 16.2624M15.9688 15.2381L19.2309 18.2643C19.2309 18.2643 19.2897 18.3241 19.3288 18.2839C19.368 18.2437 19.3092 18.186 19.3092 18.186L16.283 14.9238L15.9688 15.2381Z" stroke="#85340A" stroke-width="0.1"/>
<path d="M16.125 15.3056L20.5725 15.1382C20.5725 15.1382 20.6562 15.1382 20.6562 15.0827C20.6562 15.0273 20.5725 15.0273 20.5725 15.0273L16.125 14.8652V15.3056ZM17.5615 15.5079C18.1215 15.7645 18.5793 15.5449 19.0675 15.8004C19.5557 16.0559 19.9581 15.8961 20.1821 15.9091C20.4061 15.9222 20.4692 16.1103 20.5214 16.0635C20.5735 16.0168 20.4702 15.8254 20.1723 15.7504C19.8743 15.6753 19.7025 15.8591 19.1034 15.547C18.5042 15.235 18.2335 15.484 17.6996 15.1762" fill="#F6B40E"/>
<path d="M17.5615 15.5079C18.1215 15.7645 18.5793 15.5449 19.0675 15.8004C19.5557 16.0559 19.9581 15.8961 20.1821 15.9091C20.4061 15.9222 20.4692 16.1103 20.5214 16.0635C20.5735 16.0168 20.4702 15.8254 20.1723 15.7504C19.8743 15.6753 19.7025 15.8591 19.1034 15.547C18.5042 15.235 18.2335 15.484 17.6996 15.1762M16.125 15.3056L20.5725 15.1382C20.5725 15.1382 20.6562 15.1382 20.6562 15.0827C20.6562 15.0273 20.5725 15.0273 20.5725 15.0273L16.125 14.8652V15.3056Z" stroke="#85340A" stroke-width="0.1"/>
<path d="M16.0391 15.2871L20.2125 16.8345C20.2125 16.8345 20.2897 16.866 20.3104 16.8149C20.331 16.7638 20.2549 16.7312 20.2549 16.7312L16.2109 14.875L16.0391 15.2871ZM17.2917 16.0189C17.7104 16.4691 18.2171 16.4409 18.5705 16.8649C18.9239 17.289 19.3578 17.2999 19.5579 17.3956C19.758 17.4913 19.746 17.6903 19.8112 17.6674C19.8765 17.6446 19.8558 17.4282 19.609 17.2455C19.3622 17.0628 19.136 17.1618 18.6999 16.6485C18.2639 16.1353 17.9203 16.2582 17.544 15.7688" fill="#F6B40E"/>
<path d="M17.2917 16.0189C17.7104 16.4691 18.2171 16.4409 18.5705 16.8649C18.9239 17.289 19.3578 17.2999 19.5579 17.3956C19.758 17.4913 19.746 17.6903 19.8112 17.6674C19.8765 17.6446 19.8558 17.4282 19.609 17.2455C19.3622 17.0628 19.136 17.1618 18.6999 16.6485C18.2639 16.1353 17.9203 16.2582 17.544 15.7688M16.0391 15.2871L20.2125 16.8345C20.2125 16.8345 20.2897 16.866 20.3104 16.8149C20.331 16.7638 20.2549 16.7312 20.2549 16.7312L16.2109 14.875L16.0391 15.2871Z" stroke="#85340A" stroke-width="0.1"/>
<path d="M16.4745 13.5019C16.6724 12.9451 16.4636 12.5754 16.73 12.1024C16.4343 12.4406 16.6289 12.8788 16.3701 13.4518L16.4745 13.5019ZM16.2385 15.0808L16.1298 12.0273L16.0156 15.0808" fill="#85340A"/>
<path d="M17.0538 13.7567C17.4507 13.3217 17.3986 12.8955 17.8259 12.5606C17.4225 12.7595 17.4355 13.2391 16.9766 13.6697L17.0538 13.7567ZM16.235 15.1192L17.2985 12.2539L16.0273 15.0322" fill="#85340A"/>
<path d="M17.4883 14.2137C18.0233 13.9603 18.1408 13.5504 18.6594 13.4047C18.2104 13.4351 18.0385 13.8831 17.4503 14.105L17.4883 14.2137ZM16.2095 15.1587L18.2886 12.9219L16.0508 15.001" fill="#85340A"/>
<path d="M15.8433 13.4913C15.8139 12.9008 15.479 12.6398 15.5453 12.1016C15.4007 12.5267 15.7487 12.8627 15.7291 13.4858L15.8433 13.4913ZM16.2336 15.0354L14.957 12.2571L16.0216 15.1202" fill="#85340A"/>
<path d="M16.2115 15.2914L20.2577 13.4341C20.2577 13.4341 20.3349 13.4026 20.3143 13.3515C20.2936 13.3004 20.2153 13.3319 20.2153 13.3319L16.043 14.8793L16.2115 15.2914ZM17.6164 14.9228C18.2308 14.9456 18.5701 14.5672 19.1192 14.6172C19.6684 14.6672 19.9783 14.3649 20.1925 14.291C20.4067 14.217 20.5339 14.3671 20.5644 14.304C20.5948 14.241 20.4263 14.1039 20.1218 14.1485C19.8173 14.1931 19.7282 14.4236 19.0572 14.366C18.3863 14.3084 18.2297 14.64 17.6186 14.5596" fill="#F6B40E"/>
<path d="M17.6164 14.9228C18.2308 14.9456 18.5701 14.5672 19.1192 14.6172C19.6684 14.6672 19.9783 14.3649 20.1925 14.291C20.4067 14.217 20.5339 14.3671 20.5644 14.304C20.5948 14.241 20.4263 14.1039 20.1218 14.1485C19.8173 14.1931 19.7282 14.4236 19.0572 14.366C18.3863 14.3084 18.2297 14.64 17.6186 14.5596M16.2115 15.2914L20.2577 13.4341C20.2577 13.4341 20.3349 13.4026 20.3143 13.3515C20.2936 13.3004 20.2153 13.3319 20.2153 13.3319L16.043 14.8793L16.2115 15.2914Z" stroke="#85340A" stroke-width="0.1"/>
<path d="M17.7188 14.8003C18.3092 14.7709 18.5702 14.436 19.1085 14.5023C18.6833 14.3577 18.3527 14.7057 17.7242 14.6861L17.7188 14.8003ZM16.1747 15.1907L18.953 13.9141L16.0898 14.9786" fill="#85340A"/>
<path d="M17.7024 15.43C18.2591 15.6279 18.6288 15.4191 19.1019 15.6855C18.7637 15.3898 18.3254 15.5844 17.7524 15.3256L17.7024 15.43ZM16.1289 15.194L19.1823 15.0853L16.1289 14.9766" fill="#85340A"/>
<path d="M17.4484 16.0089C17.8834 16.4058 18.3097 16.3536 18.6446 16.781C18.4456 16.3776 17.966 16.3906 17.5354 15.9317L17.4484 16.0089ZM16.0859 15.1901L18.9512 16.2536L16.1729 14.9824" fill="#85340A"/>
<path d="M16.9957 16.4482C17.2491 16.9832 17.659 17.1006 17.8048 17.6193C17.7743 17.1702 17.3263 16.9984 17.1045 16.4101L16.9957 16.4482ZM16.0508 15.1694L18.2876 17.2485L16.2085 15.0117" fill="#85340A"/>
<path d="M16.4045 16.6769C16.4338 17.2673 16.7687 17.5283 16.7024 18.0666C16.847 17.6414 16.4991 17.3054 16.5186 16.6823L16.4045 16.6769ZM16.0195 15.1328L17.2907 17.9111L16.2316 15.0469" fill="#85340A"/>
<path d="M16.1252 13.2695C16.4837 13.2695 16.8342 13.3758 17.1323 13.575C17.4304 13.7742 17.6627 14.0573 17.7999 14.3885C17.9371 14.7198 17.973 15.0842 17.9031 15.4359C17.8331 15.7875 17.6605 16.1105 17.407 16.364C17.1535 16.6175 16.8305 16.7901 16.4788 16.8601C16.1272 16.93 15.7627 16.8941 15.4315 16.7569C15.1003 16.6197 14.8172 16.3874 14.618 16.0893C14.4188 15.7912 14.3125 15.4407 14.3125 15.0822C14.3128 14.6016 14.5039 14.1407 14.8437 13.8008C15.1836 13.4609 15.6445 13.2698 16.1252 13.2695Z" fill="#F6B40E" stroke="#85340A" stroke-width="0.1"/>
<path d="M16.7418 14.6955C16.6799 14.6937 16.6186 14.7079 16.5639 14.7369C16.5092 14.7659 16.463 14.8086 16.4297 14.8607C16.57 14.9858 16.8777 14.9988 17.0821 14.8455C17.0377 14.7986 16.9843 14.7612 16.9251 14.7354C16.8658 14.7096 16.802 14.696 16.7374 14.6955H16.7418ZM16.7418 14.7237C16.8625 14.7237 16.9756 14.777 16.9908 14.8325C16.9265 14.9 16.839 14.9407 16.7459 14.9461C16.6529 14.9516 16.5612 14.9214 16.4895 14.8618C16.5161 14.8192 16.5534 14.7841 16.5976 14.7601C16.6418 14.7361 16.6915 14.7239 16.7418 14.7248V14.7237Z" fill="#843511"/>
<path d="M16.7678 14.6079C16.7118 14.6014 16.655 14.6079 16.6019 14.6267C16.5487 14.6456 16.5006 14.6763 16.4612 14.7166C16.4202 14.7494 16.3727 14.7731 16.322 14.7862C16.3078 14.8004 16.322 14.8417 16.3492 14.8276C16.4096 14.7989 16.4659 14.7624 16.5166 14.7188C16.5882 14.6641 16.6782 14.6391 16.7678 14.6492C17.0179 14.6492 17.1582 14.858 17.1854 14.8439C17.2126 14.8297 17.0462 14.6068 16.7678 14.6068V14.6079Z" fill="#85340A"/>
<path d="M17.2664 14.6911C16.9456 14.4127 16.5422 14.3703 16.3182 14.5823C16.2658 14.6506 16.2304 14.7304 16.2149 14.815C16.204 14.9048 16.2113 14.9958 16.2363 15.0827C16.2613 15.1696 16.3036 15.2505 16.3606 15.3207C16.3396 15.324 16.3202 15.3339 16.3052 15.3489C16.1993 15.1548 16.1611 14.9311 16.1964 14.7128C16.2066 14.6588 16.2211 14.6057 16.2399 14.5541C16.5466 14.3029 16.9652 14.2757 17.2719 14.6932L17.2664 14.6911Z" fill="#85340A"/>
<path d="M16.7383 14.7031C16.7631 14.7031 16.7872 14.7105 16.8078 14.7242C16.8284 14.7379 16.8444 14.7575 16.8539 14.7803C16.8633 14.8032 16.8658 14.8283 16.861 14.8526C16.8562 14.8768 16.8442 14.8991 16.8268 14.9166C16.8093 14.9341 16.787 14.946 16.7627 14.9508C16.7385 14.9557 16.7133 14.9532 16.6905 14.9437C16.6676 14.9342 16.6481 14.9182 16.6344 14.8977C16.6206 14.8771 16.6133 14.8529 16.6133 14.8282C16.6131 14.8117 16.6163 14.7954 16.6225 14.7802C16.6287 14.7649 16.6379 14.7511 16.6496 14.7394C16.6612 14.7278 16.6751 14.7186 16.6903 14.7124C16.7055 14.7061 16.7219 14.703 16.7383 14.7031Z" fill="#85340A"/>
<path d="M17.1029 14.9156C16.8659 15.0972 16.6288 15.0831 16.4886 14.9994C16.3483 14.9156 16.3494 14.8906 16.3798 14.8906C16.4103 14.8906 16.4353 14.9178 16.5473 14.9744C16.6593 15.0309 16.8257 15.0298 17.104 14.9178L17.1029 14.9156Z" fill="#85340A"/>
<path d="M15.8479 15.334C15.8181 15.3408 15.7917 15.3583 15.7738 15.3831C15.7559 15.408 15.7476 15.4385 15.7506 15.469C15.7535 15.4995 15.7674 15.5279 15.7897 15.5488C15.8121 15.5698 15.8413 15.582 15.8719 15.583C15.892 15.5832 15.9118 15.5784 15.9296 15.5691C15.9474 15.5598 15.9627 15.5463 15.9741 15.5297C16.0192 15.5584 16.0718 15.5728 16.1252 15.571H16.1415C16.1949 15.5728 16.2476 15.5584 16.2927 15.5297C16.3041 15.5463 16.3193 15.5598 16.3372 15.5691C16.355 15.5784 16.3748 15.5832 16.3949 15.583C16.4255 15.582 16.4547 15.5698 16.477 15.5488C16.4994 15.5279 16.5133 15.4995 16.5162 15.469C16.5191 15.4385 16.5109 15.408 16.493 15.3831C16.475 15.3583 16.4487 15.3408 16.4188 15.334C16.4352 15.34 16.4494 15.351 16.4593 15.3654C16.4692 15.3798 16.4745 15.397 16.4743 15.4145C16.4743 15.4367 16.4655 15.458 16.4498 15.4737C16.4341 15.4894 16.4128 15.4982 16.3906 15.4982C16.3684 15.4982 16.3471 15.4894 16.3314 15.4737C16.3157 15.458 16.3068 15.4367 16.3068 15.4145C16.2918 15.4478 16.2674 15.4761 16.2366 15.496C16.2059 15.5159 16.17 15.5264 16.1334 15.5264C16.0968 15.5264 16.0609 15.5159 16.0302 15.496C15.9994 15.4761 15.975 15.4478 15.96 15.4145C15.96 15.4367 15.9511 15.458 15.9354 15.4737C15.9197 15.4894 15.8984 15.4982 15.8762 15.4982C15.854 15.4982 15.8327 15.4894 15.817 15.4737C15.8013 15.458 15.7925 15.4367 15.7925 15.4145C15.7923 15.397 15.7975 15.3798 15.8075 15.3654C15.8174 15.351 15.8315 15.34 15.8479 15.334Z" fill="#85340A"/>
<path d="M15.9838 15.7051C15.8446 15.7051 15.7891 15.8312 15.6641 15.9149C15.739 15.8725 15.8116 15.8261 15.8815 15.7758C15.9794 15.7203 16.0631 15.7888 16.1186 15.7888C16.1741 15.7888 16.2567 15.7203 16.3546 15.7758C16.4269 15.8263 16.5021 15.8728 16.5797 15.9149C16.4535 15.8312 16.397 15.7051 16.2534 15.7051C16.2051 15.7103 16.1583 15.7247 16.1153 15.7475C16.0744 15.7255 16.0298 15.7111 15.9838 15.7051Z" fill="#85340A"/>
<path d="M15.9358 15.8685C15.8567 15.8736 15.7785 15.8886 15.7031 15.9131C15.9543 15.8577 16.0098 15.9414 16.1218 15.9414C16.2305 15.9414 16.2881 15.8577 16.5393 15.9131C16.4058 15.8637 16.2608 15.8539 16.1218 15.8849C16.0602 15.8754 15.9981 15.87 15.9358 15.8685Z" fill="#85340A"/>
<path d="M15.7173 15.9129H15.6641C15.9566 15.9412 15.8163 16.1087 16.1229 16.1087C16.4296 16.1087 16.2904 15.9412 16.584 15.9129C16.2774 15.8858 16.3741 16.0663 16.1229 16.0663C15.8881 16.0663 15.9598 15.9075 15.7173 15.9108V15.9129Z" fill="#85340A"/>
<path d="M16.3774 16.3664C16.3774 16.2998 16.3509 16.2359 16.3038 16.1888C16.2567 16.1417 16.1928 16.1152 16.1262 16.1152C16.0596 16.1152 15.9957 16.1417 15.9486 16.1888C15.9015 16.2359 15.875 16.2998 15.875 16.3664C15.888 16.3096 15.92 16.2588 15.9656 16.2225C16.0112 16.1861 16.0679 16.1663 16.1262 16.1663C16.1845 16.1663 16.2411 16.1861 16.2868 16.2225C16.3324 16.2588 16.3643 16.3096 16.3774 16.3664Z" fill="#85340A"/>
<path d="M15 14.6911C15.3262 14.4127 15.7242 14.3703 15.9482 14.5823C16.0006 14.6506 16.036 14.7304 16.0515 14.815C16.0624 14.9048 16.0552 14.9958 16.0301 15.0827C16.0051 15.1696 15.9628 15.2505 15.9058 15.3207C15.9268 15.324 15.9462 15.3339 15.9613 15.3489C16.069 15.1555 16.1091 14.9317 16.0754 14.7128C16.0653 14.6588 16.0507 14.6057 16.0319 14.5541C15.7253 14.3029 15.3066 14.2757 15 14.6932V14.6911Z" fill="#85340A"/>
<path d="M15.4986 14.6079C15.5546 14.6014 15.6114 14.6079 15.6645 14.6267C15.7177 14.6456 15.7658 14.6763 15.8052 14.7166C15.8462 14.7494 15.8936 14.7731 15.9444 14.7862C15.9585 14.8004 15.9444 14.8417 15.9172 14.8276C15.8568 14.7989 15.8005 14.7624 15.7498 14.7188C15.6782 14.6641 15.5882 14.6391 15.4986 14.6492C15.2474 14.6492 15.1082 14.858 15.081 14.8439C15.0538 14.8297 15.2202 14.6068 15.4986 14.6068V14.6079Z" fill="#85340A"/>
<path d="M15.4918 14.6954C15.4295 14.6941 15.368 14.7091 15.3133 14.7389C15.2585 14.7686 15.2125 14.8121 15.1797 14.865C15.32 14.9901 15.6277 15.0031 15.8321 14.8498C15.7877 14.8029 15.7343 14.7654 15.6751 14.7397C15.6158 14.7139 15.552 14.7003 15.4874 14.6997L15.4918 14.6954ZM15.4918 14.7237C15.6125 14.7237 15.7256 14.7769 15.7408 14.8324C15.6765 14.9 15.589 14.9406 15.4959 14.946C15.4029 14.9515 15.3112 14.9214 15.2395 14.8618C15.2661 14.8191 15.3034 14.784 15.3476 14.76C15.3918 14.736 15.4415 14.7239 15.4918 14.7247V14.7237Z" fill="#843511"/>
<path d="M15.5079 14.7031C15.5326 14.7031 15.5568 14.7105 15.5773 14.7242C15.5979 14.7379 15.6139 14.7575 15.6234 14.7803C15.6329 14.8032 15.6353 14.8283 15.6305 14.8526C15.6257 14.8768 15.6138 14.8991 15.5963 14.9166C15.5788 14.9341 15.5565 14.946 15.5323 14.9508C15.508 14.9556 15.4829 14.9532 15.46 14.9437C15.4372 14.9342 15.4176 14.9182 15.4039 14.8977C15.3901 14.8771 15.3828 14.8529 15.3828 14.8282C15.3828 14.795 15.396 14.7632 15.4194 14.7398C15.4429 14.7163 15.4747 14.7031 15.5079 14.7031Z" fill="#85340A"/>
<path d="M15.1662 14.9156C15.4033 15.0972 15.6403 15.0831 15.7795 14.9994C15.9187 14.9156 15.9198 14.8906 15.8883 14.8906C15.8567 14.8906 15.8328 14.9178 15.7208 14.9744C15.6088 15.0309 15.4424 15.0298 15.1641 14.9178L15.1662 14.9156Z" fill="#85340A"/>
</g>
</g>
<defs>
<filter id="filter0_d" x="0" y="0" width="32" height="32" filterUnits="userSpaceOnUse" color-interpolation-filters="sRGB">
<feFlood flood-opacity="0" result="BackgroundImageFix"/>
<feColorMatrix in="SourceAlpha" type="matrix" values="0 0 0 0 0 0 0 0 0 0 0 0 0 0 0 0 0 0 127 0"/>
<feOffset dy="1"/>
<feGaussianBlur stdDeviation="0.5"/>
<feColorMatrix type="matrix" values="0 0 0 0 0.537255 0 0 0 0 0.537255 0 0 0 0 0.537255 0 0 0 0.15 0"/>
<feBlend mode="normal" in2="BackgroundImageFix" result="effect1_dropShadow"/>
<feBlend mode="normal" in="SourceGraphic" in2="effect1_dropShadow" result="shape"/>
</filter>
</defs>
</svg>
