<svg width="32" height="30" viewBox="0 0 32 30" fill="none" xmlns="http://www.w3.org/2000/svg">
<g filter="url(#filter0_d)">
<path fill-rule="evenodd" clip-rule="evenodd" d="M15.9863 30H16.018C19.9944 29.9958 23.8064 28.4125 26.6159 25.5982C29.4254 22.7839 31.0024 18.969 31.0003 14.9921C30.9982 11.0152 29.4171 7.20193 26.6046 4.3906C23.7922 1.57927 19.9785 0 16.0021 0C12.0257 0 8.21207 1.57927 5.39959 4.3906C2.5871 7.20193 1.00601 11.0152 1.00391 14.9921C1.00181 18.969 2.57886 22.7839 5.38837 25.5982C8.19788 28.4125 12.0099 29.9958 15.9863 30Z" fill="#FEFEFE"/>
<path fill-rule="evenodd" clip-rule="evenodd" d="M15.986 30.001H16.0031V0.00586116C14.0338 0.00489949 12.0836 0.391881 10.2639 1.14469C8.44417 1.8975 6.7905 3.00139 5.39734 4.39336C2.58371 7.20457 1.00194 11.0185 1 14.9961C0.99806 18.9737 2.5761 22.7892 5.38698 25.6031C8.19786 28.4171 12.0113 29.999 15.9884 30.001H15.986Z" fill="#313C91"/>
<path fill-rule="evenodd" clip-rule="evenodd" d="M15.985 29.9976H16.0168C19.9909 29.993 23.8008 28.4109 26.6093 25.5988C29.4179 22.7867 30.9954 18.9746 30.9954 15H1.00391C1.00455 18.9749 2.58265 22.787 5.3916 25.599C8.20055 28.411 12.0106 29.993 15.985 29.9976Z" fill="#C72D2D"/>
<path fill-rule="evenodd" clip-rule="evenodd" d="M8.50944 3.75L7.34766 7.31631L9.13182 7.89727L8.50944 3.75Z" fill="#FEFEFE"/>
<path fill-rule="evenodd" clip-rule="evenodd" d="M8.50861 3.75L9.66307 7.31631L7.87891 7.89727L8.50861 3.75Z" fill="#FEFEFE"/>
<path fill-rule="evenodd" clip-rule="evenodd" d="M12.0722 6.34375H8.32812V8.2209L12.0722 6.34375Z" fill="#FEFEFE"/>
<path fill-rule="evenodd" clip-rule="evenodd" d="M12.0696 6.34375L9.03582 8.55043L7.9375 7.03213L12.0696 6.34375Z" fill="#FEFEFE"/>
<path fill-rule="evenodd" clip-rule="evenodd" d="M4.9375 6.34375L7.97619 8.55043L9.07208 7.03213L4.9375 6.34375Z" fill="#FEFEFE"/>
<path fill-rule="evenodd" clip-rule="evenodd" d="M4.9375 6.34375H8.68888V8.2209L4.9375 6.34375Z" fill="#FEFEFE"/>
<path fill-rule="evenodd" clip-rule="evenodd" d="M10.7082 10.5326L9.5537 6.96875L7.76953 7.54727L10.7082 10.5326Z" fill="#FEFEFE"/>
<path fill-rule="evenodd" clip-rule="evenodd" d="M10.7096 10.5316L7.67578 8.32738L8.78387 6.81641L10.7096 10.5316Z" fill="#FEFEFE"/>
<path fill-rule="evenodd" clip-rule="evenodd" d="M6.30469 10.5316L9.3385 8.32738L8.23285 6.81641L6.30469 10.5316Z" fill="#FEFEFE"/>
<path fill-rule="evenodd" clip-rule="evenodd" d="M6.30469 10.5326L7.46159 6.96875L9.24331 7.54727L6.30469 10.5326Z" fill="#FEFEFE"/>
</g>
<defs>
<filter id="filter0_d" x="0" y="0" width="32.0003" height="32.001" filterUnits="userSpaceOnUse" color-interpolation-filters="sRGB">
<feFlood flood-opacity="0" result="BackgroundImageFix"/>
<feColorMatrix in="SourceAlpha" type="matrix" values="0 0 0 0 0 0 0 0 0 0 0 0 0 0 0 0 0 0 127 0"/>
<feOffset dy="1"/>
<feGaussianBlur stdDeviation="0.5"/>
<feColorMatrix type="matrix" values="0 0 0 0 0.537255 0 0 0 0 0.537255 0 0 0 0 0.537255 0 0 0 0.15 0"/>
<feBlend mode="normal" in2="BackgroundImageFix" result="effect1_dropShadow"/>
<feBlend mode="normal" in="SourceGraphic" in2="effect1_dropShadow" result="shape"/>
</filter>
</defs>
</svg>
