<svg width="31" height="30" viewBox="0 0 31 30" fill="none" xmlns="http://www.w3.org/2000/svg">
<g filter="url(#filter0_d)">
<path d="M15 0V30C23.2846 30 30.0003 23.2843 30.0003 15.0002C30.0003 6.71546 23.2845 0 15 0Z" fill="#214391"/>
<path d="M14.9998 0C6.71575 0 0 6.71546 0 15.0002C0 23.2843 6.71575 30 14.9998 30C23.2844 30 23.2844 0 14.9998 0Z" fill="#2B479D"/>
<path d="M14.9998 0C6.71575 0 0 6.71546 0 15.0002C0 23.2843 6.71575 30 14.9998 30C23.2844 30 23.2844 0 14.9998 0Z" fill="#214391"/>
<path d="M14.9721 2.60352L15.3379 3.72947H16.5222L15.5642 4.42533L15.9301 5.55128L14.9721 4.85499L14.0142 5.55128L14.3802 4.42533L13.4219 3.72947H14.6061L14.9721 2.60352Z" fill="#F8D12E"/>
<path d="M14.9721 23.8594L15.3379 24.9858H16.5222L15.5642 25.6817L15.9301 26.8076L14.9721 26.1118L14.0142 26.8076L14.3802 25.6817L13.4219 24.9858H14.6061L14.9721 23.8594Z" fill="#F8D12E"/>
<path d="M20.8077 4.48828L21.1734 5.61449H22.3577L21.3996 6.31079L21.7655 7.43675L20.8077 6.74045L19.8497 7.43675L20.2156 6.31079L19.2578 5.61449H20.442L20.8077 4.48828Z" fill="#F8D12E"/>
<path d="M24.7846 8.41406L25.1502 9.54002H26.3345L25.3764 10.2361L25.7424 11.3621L24.7846 10.6662L23.8265 11.3621L24.1924 10.2361L23.2344 9.54002H24.4184L24.7846 8.41406Z" fill="#F8D12E"/>
<path d="M24.8822 18.3359L25.2479 19.4623H26.4321L25.4741 20.1582L25.8402 21.2839L24.8822 20.5883L23.9241 21.2839L24.2901 20.1582L23.332 19.4623H24.5163L24.8822 18.3359Z" fill="#F8D12E"/>
<path d="M5.30383 8.41406L5.66952 9.54002H6.8535L5.89569 10.2361L6.26139 11.3621L5.30383 10.6662L4.34583 11.3621L4.71172 10.2361L3.75391 9.54002H4.93814L5.30383 8.41406Z" fill="#F8D12E"/>
<path d="M25.7103 13.1445L26.076 14.2705H27.2602L26.3022 14.9663L26.6681 16.0926L25.7103 15.397L24.7523 16.0926L25.1184 14.9663L24.1602 14.2705H25.3441L25.7103 13.1445Z" fill="#F8D12E"/>
<path d="M4.39777 13.1445L4.76347 14.2705H5.94744L4.98944 14.9663L5.35558 16.0926L4.39777 15.397L3.43971 16.0926L3.80566 14.9663L2.84766 14.2705H4.03182L4.39777 13.1445Z" fill="#F8D12E"/>
<path d="M5.17511 18.3359L5.54081 19.4623H6.72479L5.76704 20.1582L6.13267 21.2839L5.17511 20.5883L4.21712 21.2839L4.583 20.1582L3.625 19.4623H4.80923L5.17511 18.3359Z" fill="#F8D12E"/>
<path d="M20.9759 22.4277L21.3416 23.5537H22.5258L21.5676 24.25L21.9337 25.3759L20.9759 24.6801L20.0176 25.3759L20.3838 24.25L19.4258 23.5537H20.61L20.9759 22.4277Z" fill="#F8D12E"/>
<path d="M9.32727 4.48828L9.6929 5.61449H10.8771L9.91913 6.31079L10.2853 7.43675L9.32727 6.74045L8.36946 7.43675L8.73534 6.31079L7.77734 5.61449H8.96132L9.32727 4.48828Z" fill="#F8D12E"/>
<path d="M8.89367 22.3594L9.25956 23.4858H10.4438L9.48579 24.1814L9.85167 25.3074L8.89367 24.612L7.93587 25.3074L8.30175 24.1814L7.34375 23.4858H8.52773L8.89367 22.3594Z" fill="#F8D12E"/>
</g>
<defs>
<filter id="filter0_d" x="-1" y="0" width="32.0003" height="32" filterUnits="userSpaceOnUse" color-interpolation-filters="sRGB">
<feFlood flood-opacity="0" result="BackgroundImageFix"/>
<feColorMatrix in="SourceAlpha" type="matrix" values="0 0 0 0 0 0 0 0 0 0 0 0 0 0 0 0 0 0 127 0"/>
<feOffset dy="1"/>
<feGaussianBlur stdDeviation="0.5"/>
<feColorMatrix type="matrix" values="0 0 0 0 0.537255 0 0 0 0 0.537255 0 0 0 0 0.537255 0 0 0 0.15 0"/>
<feBlend mode="normal" in2="BackgroundImageFix" result="effect1_dropShadow"/>
<feBlend mode="normal" in="SourceGraphic" in2="effect1_dropShadow" result="shape"/>
</filter>
</defs>
</svg>
