<svg width="30" height="30" viewBox="0 0 30 30" fill="none" xmlns="http://www.w3.org/2000/svg">
<mask id="mask0" mask-type="alpha" maskUnits="userSpaceOnUse" x="0" y="0" width="30" height="30">
<circle cx="15" cy="15" r="15" fill="#C4C4C4"/>
</mask>
<g mask="url(#mask0)">
<path d="M45.0012 0H-15V30.0006H45.0012V0Z" fill="#000066"/>
<path d="M-15 0V3.35417L38.2931 30.0007H45.0012V26.6466L-8.29187 0.000100002H-15L-15 0ZM45.0012 0V3.35407L-8.29187 30.0006H-15V26.6465L38.2931 0H45.0012Z" fill="white"/>
<path d="M10.0005 0V30.0006H20.0007V0H10.0005ZM-15 10.0002V20.0004H45.0012V10.0002H-15Z" fill="white"/>
<path d="M-15 12.0002V18.0004H45.0012V12.0002H-15ZM12.0005 0V30.0006H18.0007V0H12.0005Z" fill="#CC0000"/>
<path d="M-15 30.0006L5.0004 20.0004H9.47249L-10.5279 30.0006H-15H-15ZM-15 0L5.0004 10.0002H0.528311L-15 2.23614V0L-15 0ZM20.5287 10.0002L40.5291 0H45.0012L25.0008 10.0002H20.5287ZM45.0012 30.0006L25.0008 20.0004H29.4729L45.0012 27.7646V30.0006Z" fill="#CC0000"/>
</g>
</svg>
