<svg width="30" height="30" viewBox="0 0 30 30" fill="none" xmlns="http://www.w3.org/2000/svg">
<path fill-rule="evenodd" clip-rule="evenodd" d="M22.9951 27.6934H7.00391C9.39831 29.2009 12.1701 30.0008 14.9995 30.0008C17.8289 30.0008 20.6007 29.2009 22.9951 27.6934Z" fill="#D0272C"/>
<path fill-rule="evenodd" clip-rule="evenodd" d="M7.00684 27.695H22.998C24.0306 27.0444 24.9807 26.2713 25.8276 25.3926H4.17969C5.02635 26.2706 5.97555 27.0437 7.00684 27.695Z" fill="#FEFEFE"/>
<path fill-rule="evenodd" clip-rule="evenodd" d="M4.17578 25.3927H25.8237C26.5026 24.6853 27.111 23.9133 27.6401 23.0879H2.35938C2.88856 23.9133 3.4969 24.6853 4.17578 25.3927Z" fill="#D0272C"/>
<path fill-rule="evenodd" clip-rule="evenodd" d="M2.36084 23.0832H27.6416C28.1105 22.3497 28.5149 21.5769 28.8501 20.7734H1.15234C1.48758 21.5769 1.89194 22.3497 2.36084 23.0832Z" fill="#FEFEFE"/>
<path fill-rule="evenodd" clip-rule="evenodd" d="M1.15185 20.7726H28.8496C29.1621 20.0245 29.4128 19.252 29.5991 18.4629H0.402344C0.588658 19.252 0.839332 20.0245 1.15185 20.7726Z" fill="#D0272C"/>
<path fill-rule="evenodd" clip-rule="evenodd" d="M0.401856 18.4616H29.5986C29.7774 17.703 29.8966 16.9315 29.9551 16.1543H0.0429688C0.10344 16.9314 0.223421 17.7028 0.401856 18.4616Z" fill="#FEFEFE"/>
<path fill-rule="evenodd" clip-rule="evenodd" d="M0.0439472 16.1535H29.9561C29.9854 15.7726 30 15.3868 30 14.9986C30 14.6104 29.9854 14.2246 29.9561 13.8438H0.0439472C0.0170918 14.2246 0 14.6104 0 14.9986C0 15.3868 0.0170918 15.7726 0.0439472 16.1535Z" fill="#D0272C"/>
<path fill-rule="evenodd" clip-rule="evenodd" d="M0.0429688 13.8478H29.9551C29.8968 13.0714 29.7776 12.3007 29.5986 11.543H0.401856C0.223232 12.3009 0.103248 13.0715 0.0429688 13.8478Z" fill="#FEFEFE"/>
<path fill-rule="evenodd" clip-rule="evenodd" d="M0.402344 11.5417H29.5991C29.4129 10.7536 29.163 9.98201 28.852 9.23438H1.14941C0.83843 9.98201 0.588588 10.7536 0.402344 11.5417Z" fill="#D0272C"/>
<path fill-rule="evenodd" clip-rule="evenodd" d="M1.14844 9.23697H28.8511C28.5164 8.43406 28.112 7.66201 27.6426 6.92969H2.35693C1.8875 7.66201 1.48312 8.43406 1.14844 9.23697Z" fill="#FEFEFE"/>
<path fill-rule="evenodd" clip-rule="evenodd" d="M2.35938 6.9274H27.645C27.1159 6.09902 26.5066 5.32458 25.8262 4.61523H4.17822C3.49775 5.32458 2.88854 6.09902 2.35938 6.9274Z" fill="#D0272C"/>
<path fill-rule="evenodd" clip-rule="evenodd" d="M4.17969 4.61539H25.8276C24.9819 3.73656 24.0335 2.96272 23.0029 2.31055H7.0044C5.97378 2.96272 5.02539 3.73656 4.17969 4.61539Z" fill="#FEFEFE"/>
<path fill-rule="evenodd" clip-rule="evenodd" d="M7 2.30978H22.9985C20.6033 0.800748 17.8302 0 14.9993 0C12.1684 0 9.39522 0.800748 7 2.30978Z" fill="#D0272C"/>
<path fill-rule="evenodd" clip-rule="evenodd" d="M0.0439472 16.1559H12.7734V0.166016C9.221 0.699783 5.978 2.49062 3.63396 5.21297C1.28992 7.93531 0.000465646 11.4084 0 15.001C0 15.3819 0.0170918 15.775 0.0439472 16.1559Z" fill="#2E3C66"/>
<path fill-rule="evenodd" clip-rule="evenodd" d="M1.1626 9.20898H1.68506L1.16748 9.58499L1.36279 10.1954L0.90625 9.86089C0.986003 9.63626 1.07145 9.41896 1.1626 9.20898Z" fill="#FEFEFE"/>
<path fill-rule="evenodd" clip-rule="evenodd" d="M0.846192 11.2949L1.04151 11.9029H1.6836L1.16602 12.2813L1.36133 12.8893L0.846192 12.5108L0.328615 12.8893L0.521484 12.2813L0.277344 12.1055C0.291992 12.0372 0.304202 11.9712 0.318851 11.9029H0.633791L0.846192 11.2949Z" fill="#FEFEFE"/>
<path fill-rule="evenodd" clip-rule="evenodd" d="M3.1709 5.78125L3.26855 6.07912L3.05859 5.92774L3.1709 5.78125Z" fill="#FEFEFE"/>
<path fill-rule="evenodd" clip-rule="evenodd" d="M2.74365 7.17773L2.94385 7.78325H3.58349L3.06592 8.16169L3.26855 8.77452L2.74365 8.39364L2.22851 8.77452L2.42383 8.16169L1.90625 7.78325H2.5459L2.74365 7.17773Z" fill="#FEFEFE"/>
<path fill-rule="evenodd" clip-rule="evenodd" d="M2.74365 9.87305L2.94385 10.4834H3.58349L3.06592 10.8619L3.26855 11.4698L2.74365 11.0938L2.22851 11.4698L2.42383 10.8619L1.90625 10.4834H2.5459L2.74365 9.87305Z" fill="#FEFEFE"/>
<path fill-rule="evenodd" clip-rule="evenodd" d="M2.74365 12.5645L2.94385 13.1797H3.58349L3.06592 13.5533L3.26855 14.1637L2.74365 13.7877L2.22851 14.1637L2.42383 13.5533L1.90625 13.1797H2.5459L2.74365 12.5645Z" fill="#FEFEFE"/>
<path fill-rule="evenodd" clip-rule="evenodd" d="M5.00879 3.81445H5.46533L4.94531 4.19046L5.14307 4.80085L4.62305 4.42485L4.10547 4.80085L4.15918 4.63482C4.43262 4.34997 4.71582 4.07651 5.00879 3.81445Z" fill="#FEFEFE"/>
<path fill-rule="evenodd" clip-rule="evenodd" d="M4.62646 5.89844L4.82422 6.50639H5.46875L4.94873 6.88727L5.14648 7.49278L4.62646 7.1241L4.10889 7.49278L4.30908 6.88727L3.78906 6.50639H4.43115L4.62646 5.89844Z" fill="#FEFEFE"/>
<path fill-rule="evenodd" clip-rule="evenodd" d="M4.62646 8.59961L4.82422 9.21H5.46875L4.94873 9.58601L5.14648 10.1964L4.62646 9.82039L4.10889 10.1964L4.30908 9.58601L3.78906 9.21H4.43115L4.62646 8.59961Z" fill="#FEFEFE"/>
<path fill-rule="evenodd" clip-rule="evenodd" d="M4.62646 11.2949L4.82422 11.9029H5.46875L4.94873 12.2813L5.14648 12.8893L4.62646 12.5108L4.10889 12.8893L4.30908 12.2813L3.78906 11.9029H4.43115L4.62646 11.2949Z" fill="#FEFEFE"/>
<path fill-rule="evenodd" clip-rule="evenodd" d="M6.86963 2.39258H7.37012L6.85254 2.76858L7.04785 3.37897L6.52783 3.00297L6.00781 3.37897L6.17139 2.86869C6.40332 2.7051 6.63525 2.54396 6.86963 2.39258Z" fill="#FEFEFE"/>
<path fill-rule="evenodd" clip-rule="evenodd" d="M6.5249 4.47852L6.7251 5.08891H7.36719L6.84961 5.46491L7.04492 6.0753L6.5249 5.6993L6.01221 6.0753L6.20508 5.46491L5.6875 5.08891H6.32715L6.5249 4.47852Z" fill="#FEFEFE"/>
<path fill-rule="evenodd" clip-rule="evenodd" d="M6.5249 7.17773L6.7251 7.78325H7.36719L6.84961 8.16169L7.04492 8.77452L6.5249 8.39364L6.01221 8.77452L6.20508 8.16169L5.6875 7.78325H6.32715L6.5249 7.17773Z" fill="#FEFEFE"/>
<path fill-rule="evenodd" clip-rule="evenodd" d="M6.5249 9.87305L6.7251 10.4834H7.36719L6.84961 10.8619L7.04492 11.4698L6.5249 11.0938L6.01221 11.4698L6.20508 10.8619L5.6875 10.4834H6.32715L6.5249 9.87305Z" fill="#FEFEFE"/>
<path fill-rule="evenodd" clip-rule="evenodd" d="M6.5249 12.5645L6.7251 13.1797H7.36719L6.84961 13.5533L7.04492 14.1637L6.5249 13.7877L6.01221 14.1637L6.20508 13.5533L5.6875 13.1797H6.32715L6.5249 12.5645Z" fill="#FEFEFE"/>
<path fill-rule="evenodd" clip-rule="evenodd" d="M8.40772 3.20312L8.60303 3.81352H9.24512L8.73242 4.18952L8.92285 4.79991L8.40772 4.42391L7.88526 4.79991L8.08545 4.18952L7.57031 3.81352H8.20752L8.40772 3.20312Z" fill="#FEFEFE"/>
<path fill-rule="evenodd" clip-rule="evenodd" d="M8.40772 5.89844L8.60303 6.50639H9.24512L8.73242 6.88727L8.92285 7.49278L8.40772 7.1241L7.88526 7.49278L8.08545 6.88727L7.57031 6.50639H8.20752L8.40772 5.89844Z" fill="#FEFEFE"/>
<path fill-rule="evenodd" clip-rule="evenodd" d="M8.40772 8.59961L8.60303 9.21H9.24512L8.73242 9.58601L8.92285 10.1964L8.40772 9.82039L7.88526 10.1964L8.08545 9.58601L7.57031 9.21H8.20752L8.40772 8.59961Z" fill="#FEFEFE"/>
<path fill-rule="evenodd" clip-rule="evenodd" d="M8.40772 11.2949L8.60303 11.9029H9.24512L8.73242 12.2813L8.92285 12.8893L8.40772 12.5108L7.88526 12.8893L8.08545 12.2813L7.57031 11.9029H8.20752L8.40772 11.2949Z" fill="#FEFEFE"/>
<path fill-rule="evenodd" clip-rule="evenodd" d="M10.3022 1.7832L10.5073 2.39848H11.1445L10.627 2.77448L10.8271 3.38487L10.3022 3.00887L9.78955 3.38487L9.98242 2.77448L9.46484 2.39848H10.1045L10.3022 1.7832Z" fill="#FEFEFE"/>
<path fill-rule="evenodd" clip-rule="evenodd" d="M10.3022 4.47852L10.5073 5.08891H11.1445L10.627 5.46491L10.8271 6.0753L10.3022 5.6993L9.78955 6.0753L9.98242 5.46491L9.46484 5.08891H10.1045L10.3022 4.47852Z" fill="#FEFEFE"/>
<path fill-rule="evenodd" clip-rule="evenodd" d="M10.3022 7.17773L10.5073 7.78325H11.1445L10.627 8.16169L10.8271 8.77452L10.3022 8.39364L9.78955 8.77452L9.98242 8.16169L9.46484 7.78325H10.1045L10.3022 7.17773Z" fill="#FEFEFE"/>
<path fill-rule="evenodd" clip-rule="evenodd" d="M10.3022 9.87305L10.5073 10.4834H11.1445L10.627 10.8619L10.8271 11.4698L10.3022 11.0938L9.78955 11.4698L9.98242 10.8619L9.46484 10.4834H10.1045L10.3022 9.87305Z" fill="#FEFEFE"/>
<path fill-rule="evenodd" clip-rule="evenodd" d="M10.3022 12.5645L10.5073 13.1797H11.1445L10.627 13.5533L10.8271 14.1637L10.3022 13.7877L9.78955 14.1637L9.98242 13.5533L9.46484 13.1797H10.1045L10.3022 12.5645Z" fill="#FEFEFE"/>
</svg>
